<svg xmlns="http://www.w3.org/2000/svg" viewBox="0 0 660 660" width="660" height="660"><rect width="100%" height="100%" rx="0" fill="#1B2A41"/><g transform="translate(330.0,495.0)"><path d="M-110.0 -200.0 L-170.0 -175.0 L-170.0 -49.3 L-110.0 -103.2 Z" fill="#F28C28"/><path d="M-30.0 -300.0 L-96.0 -275.0 L-96.0 -115.8 L-30.0 -175.1 Z" fill="#F28C28"/><path d="M-15.0 -292.0 L-22.0 -292.0 L-22.0 -182.2 L-15.0 -188.5 Z" fill="#F28C28"/><path d="M-1.0 -286.0 L-8.0 -286.0 L-8.0 -194.8 L-1.0 -201.1 Z" fill="#F28C28"/><path d="M100.0 -335.0 L20.0 -310.0 L20.0 -184.0 L100.0 -112.2 Z" fill="#D96A14"/><path d="M115.0 -326.0 L108.0 -326.0 L108.0 -105.0 L115.0 -98.7 Z" fill="#F28C28"/><path d="M129.0 -316.0 L122.0 -316.0 L122.0 -92.4 L129.0 -86.1 Z" fill="#F28C28"/><path d="M143.0 -306.0 L136.0 -306.0 L136.0 -79.8 L143.0 -73.5 Z" fill="#F28C28"/><path d="M118.0 -225.0 L58.0 -205.0 L58.0 -149.9 L118.0 -96.0 Z" fill="#F28C28"/><path d="M-260 0 H-190 L0 -170 L190 0 H260" fill="none" stroke="#FFFFFF" stroke-width="20" stroke-linejoin="miter"/><rect x="-18" y="-78" width="16" height="16" fill="#FFFFFF"/><rect x="-18" y="-58" width="16" height="16" fill="#FFFFFF"/><rect x="2" y="-78" width="16" height="16" fill="#FFFFFF"/><rect x="2" y="-58" width="16" height="16" fill="#FFFFFF"/></g></svg>